<?xml version="1.0" encoding="UTF-8"?><svg id="a" xmlns="http://www.w3.org/2000/svg" viewBox="0 0 175.13 155.7"><defs><style>.b{fill:#fff;}</style></defs><path class="b" d="M.56,155.43c-.92-13.3-.59-26.59,.18-39.86,.87-13.25,2.04-26.49,4.57-39.55,2.55-13.07,6.29-25.92,9.72-38.78,2.22-7.06,5.48-23.39,12.51-26.5,8.37-2.94,22.24,12.49,27.46,18.25,21.55,25.68,38.58,55.14,49.55,86.86,4.16,12.72,8.02,26.08,7.01,39.61l-1,.03c-1.11-6.49-3.21-12.66-5.53-18.75-7.17-18.22-16.39-35.54-25.83-52.68-9.43-17.12-19.11-34.18-30.48-50.08-3.78-5.23-7.58-10.54-12.07-14.9-2.04-1.9-4.65-4.31-7.31-4.53-.11,0-.18,.03-.28,.03h-.15c-.16,.07-.32,.14-.5,.19-1.78,1.05-2.99,2.93-4.04,4.85-1.51,2.77-2.67,5.83-3.67,8.92-5.07,15.69-5.57,32.36-7.13,48.68-1.24,13.11-3.19,26.13-5.08,39.17-1.96,13.05-4.06,26.1-6.93,39.12l-1-.07H.56Z"/><path class="b" d="M174.26,155.7c-9.19-11.54-17.11-24.01-24.65-36.65-7.74-12.53-13.86-25.9-19.64-39.43l-.72-1.6,.92-1.01c4.98-5.46,9.4-11.59,13.13-18.02,5.74-9.43,18.91-39.46,3.92-44.94-6.1-2.39-13.57-2.82-20.32-3.09-11.01-.35-22-.12-33.1,.26-14.87,.48-29.83,1.38-44.97,1.72l-.18-.98c24.24-8.19,88.33-21.02,108.38-2.24,12.93,14.37-3.44,37.46-11.12,50.83l-11.97,19.38,.2-2.61c4.09,6.12,8.4,12.12,12.27,18.36,7.7,12.52,14.2,25.69,20.37,39.03,3.03,6.74,5.92,13.52,8.35,20.53l-.87,.48h0Z"/><path class="b" d="M8.41,83.95c21.82-6.71,54.96-6.76,76.79,0-21.81,6.76-54.95,6.71-76.79,0h0Z"/></svg>